<svg width="328" height="186" viewBox="0 0 328 186" fill="none" xmlns="http://www.w3.org/2000/svg">
<path d="M221.738 98.7345C205.755 115.812 188.689 131.129 170.077 144.739C167.476 146.641 165.653 146.895 163.196 144.801C160.161 142.214 157.096 139.548 153.667 137.568C149.117 134.94 149.53 131.143 150.545 127.216C151.62 123.053 155.057 122.346 158.816 122.375C164.813 122.421 170.81 122.425 176.806 122.376C182.972 122.325 184.965 120.376 184.995 114.376C185.033 106.714 185.026 99.0514 184.997 91.3894C184.976 85.4773 182.902 83.3114 176.937 83.1233C170.615 82.924 164.289 82.876 157.965 82.7325C153.399 82.6289 150.778 80.3155 150.641 75.7087C150.493 70.7333 150.661 65.7495 150.597 60.7706C150.468 50.6044 147.553 47.7385 137.448 47.726C133.45 47.7211 129.452 47.6846 125.455 47.7361C119.788 47.8091 117.743 49.8672 117.686 55.6546C117.624 61.9836 117.585 68.3154 117.702 74.6428C117.798 79.7765 115.608 82.5462 110.429 83.6239C101.078 85.5698 99.9872 85.3665 95.0969 77.3041C88.4705 66.3796 83.4466 55.0712 83.7728 41.7527C84.2919 20.5584 102.76 1.61681 123.965 0.951879C142.71 0.364096 156.152 8.61499 165.108 24.7739C165.51 25.4991 165.902 26.2297 166.319 26.9463C166.376 27.0435 166.549 27.0729 166.61 27.1045C169.371 23.1949 171.803 19.0101 174.937 15.4424C188.364 0.156696 210.014 -3.58777 227.625 6.0764C245.338 15.7963 253.848 35.9205 248.363 55.4789C243.648 72.2888 233.104 85.573 221.738 98.7345Z" fill="#10BE2E"/>
<path d="M31.9723 184.989C28.6455 185.444 27.2922 184.609 27.4374 181.306C27.6978 175.383 27.5108 169.439 26.3327 163.269C24.1762 169.265 22.1234 175.302 19.7889 181.227C19.2185 182.675 17.7249 183.759 16.6558 185.011C15.5851 183.755 14.1053 182.666 13.5153 181.215C11.1114 175.302 8.97991 169.279 5.6658 163.498C5.6658 170.526 5.6658 177.554 5.6658 184.785C3.68037 184.785 2.23177 184.785 0.422668 184.785C0.422668 173.591 0.422668 162.515 0.422668 151.421C8.41833 150.035 8.41358 150.037 11.2441 157.644C13.2089 162.924 15.189 168.198 17.3516 173.982C19.4032 168.174 21.2705 162.839 23.1726 157.516C25.6817 150.495 25.6934 150.499 33.8913 151.174C33.8913 162.047 33.9053 172.977 33.8296 183.907C33.8271 184.266 32.912 184.619 31.9723 184.989Z" fill="#3FDC59"/>
<path d="M317.381 179.722C314.994 176.111 312.824 172.798 310.654 169.485C310.124 169.692 309.594 169.899 309.063 170.106C309.063 174.927 309.063 179.747 309.063 184.779C306.466 184.779 304.565 184.779 302.354 184.779C302.354 173.492 302.354 162.446 302.354 150.956C306.62 150.956 310.894 150.82 315.156 150.993C319.608 151.174 323.384 152.752 324.608 157.552C325.803 162.236 323.673 165.571 319.769 167.995C319.23 168.33 318.722 168.715 317.975 169.233C321.266 174.372 324.451 179.345 327.706 184.426C322.529 186.256 319.452 184.443 317.381 179.722ZM308.865 159.527C308.865 161.285 308.865 163.044 308.865 165.288C311.434 164.974 313.779 165.335 315.14 164.344C316.555 163.313 318.124 160.516 317.627 159.324C316.952 157.704 314.515 156.477 312.582 155.819C310.653 155.162 308.503 155.53 308.865 159.527Z" fill="#3FDC59"/>
<path d="M77.1929 162.018C77.1929 158.211 77.1929 154.901 77.1929 151.226C79.2395 151.226 81.2811 151.226 83.8445 151.226C83.8445 155.644 83.8445 160.056 83.8445 164.739C88.7359 164.739 93.127 164.739 98.0185 164.739C98.0185 160.173 98.0185 155.754 98.0185 151.116C100.42 151.116 102.324 151.116 104.498 151.116C104.498 162.436 104.498 173.502 104.498 184.791C102.322 184.791 100.414 184.791 98.1722 184.791C98.1722 179.947 98.1722 175.332 98.1722 170.314C93.4682 170.314 89.0811 170.314 84.1559 170.314C84.1559 174.869 84.1559 179.602 84.1559 184.678C81.7354 184.678 79.8318 184.678 77.1928 184.678C77.1928 177.36 77.1928 169.938 77.1929 162.018Z" fill="#42DD5B"/>
<path d="M216.525 167.001C216.526 161.536 216.526 156.571 216.526 151.24C218.415 151.24 220.451 151.24 222.975 151.24C222.975 155.645 222.975 160.06 222.975 164.747C227.841 164.747 232.235 164.747 237.173 164.747C237.173 160.231 237.173 155.825 237.173 151.16C239.611 151.16 241.51 151.16 243.676 151.16C243.676 162.391 243.676 173.452 243.676 184.766C241.575 184.766 239.671 184.766 237.226 184.766C237.226 179.85 237.226 175.11 237.226 170.156C232.297 170.156 227.906 170.156 223.033 170.156C223.033 175.151 223.033 179.901 223.033 184.822C220.776 184.822 219 184.822 216.525 184.822C216.525 179.006 216.525 173.253 216.525 167.001Z" fill="#3CDB56"/>
<path d="M113.198 150.877C119.326 150.875 124.972 150.875 130.802 150.875C131.94 153.817 131.974 155.762 128.036 155.636C124.571 155.524 121.1 155.612 117.328 155.612C117.328 158.725 117.328 161.486 117.328 164.792C120.558 164.792 123.945 164.792 127.674 164.792C127.674 166.681 127.674 168.041 127.674 169.757C124.282 169.757 121.005 169.757 117.376 169.757C117.376 173.306 117.376 176.508 117.376 180.13C121.92 180.13 126.344 180.13 131.116 180.13C131.116 181.903 131.116 183.268 131.116 184.831C124.306 184.831 117.704 184.831 110.248 184.831C110.248 173.956 110.213 163.198 110.353 152.441C110.36 151.91 111.893 151.399 113.198 150.877Z" fill="#3CDB56"/>
<path d="M296.266 155.519C291.884 155.591 287.927 155.591 283.653 155.591C283.653 158.938 283.653 161.69 283.653 164.822C286.932 164.822 290.219 164.822 293.952 164.822C294.087 166.53 294.195 167.9 294.351 169.882C290.557 169.882 287.156 169.882 283.545 169.882C283.545 173.411 283.545 176.362 283.545 180.211C287.151 180.211 290.724 180.354 294.28 180.17C297.683 179.993 298.333 181.55 297.407 184.716C290.881 184.716 284.284 184.716 277.074 184.716C277.074 173.669 277.074 162.497 277.074 151.099C283.495 151.099 290.269 151.099 297.891 151.099C297.44 152.731 297.066 154.09 296.266 155.519Z" fill="#3DDC57"/>
<path d="M153.422 178.603C152.078 173.077 147.925 175.453 145.07 175.363C143.778 175.323 141.975 177.186 141.183 178.617C139.503 181.652 139.884 186.783 133.46 184.484C137.209 173.938 140.898 163.365 144.814 152.876C145.167 151.932 146.954 151.102 148.133 151.017C149.101 150.947 150.762 151.84 151.077 152.691C154.975 163.226 158.683 173.831 162.431 184.395C156.628 186.52 154.385 183.83 153.422 178.603ZM147.354 170.776C148.309 170.691 149.265 170.607 150.678 170.482C149.62 166.96 148.653 163.74 147.309 159.266C146.074 163.173 145.069 165.902 144.452 168.716C144.342 169.221 145.834 170.078 147.354 170.776Z" fill="#3CDB56"/>
<path d="M249.877 174.971C249.877 166.842 249.877 159.208 249.877 151.195C254.33 151.195 259.291 150.761 264.141 151.311C269.514 151.922 272.29 155.692 272.296 160.945C272.301 166.163 269.122 169.935 263.689 170.896C261.431 171.296 259.11 171.336 256.161 171.598C256.161 173.867 256.161 175.96 256.161 178.053C256.161 180.182 256.161 182.311 256.161 184.72C254.033 184.72 252.287 184.72 249.877 184.72C249.877 181.657 249.877 178.561 249.877 174.971ZM256.149 157.967C256.149 160.742 256.149 163.517 256.149 166.594C259.946 166.969 263.666 167.547 264.856 163.536C265.466 161.478 264.714 158.036 263.235 156.599C261.571 154.981 258.289 153.836 256.149 157.967Z" fill="#37DB52"/>
<path d="M193.165 155.613C190.117 155.267 185.92 157.113 187.329 151.214C195.601 151.214 203.987 151.214 212.368 151.214C212.8 154.481 212.8 154.481 203.452 156.31C203.452 165.61 203.452 175.012 203.452 184.712C201.096 184.712 199.185 184.712 196.462 184.712C196.462 176.568 196.496 168.353 196.437 160.139C196.423 158.155 197.251 155.458 193.165 155.613Z" fill="#3BDB55"/>
<path d="M55.1029 154.943C56.5871 151.443 58.5807 149.748 62.6532 151.643C57.1345 161.941 49.6266 171.716 53.6321 184.764C50.7897 184.764 49.0288 184.764 46.2691 184.764C49.6123 171.907 42.8607 161.767 36.8123 151.358C47.407 148.551 45.7604 159.041 50.7909 162.664C52.1185 160.303 53.5291 157.794 55.1029 154.943Z" fill="#3BDB55"/>
<path d="M166.521 184.842C165.882 177.455 165.645 170.196 165.491 162.936C165.41 159.146 165.476 155.353 165.476 151.224C167.458 151.224 169.49 151.224 171.946 151.224C171.946 160.693 171.946 170.093 171.946 180.23C175.569 180.23 178.822 180.373 182.056 180.191C185.446 180 186.117 181.529 185.063 184.971C179.124 184.971 173.041 184.971 166.521 184.842Z" fill="#38DB52"/>
<path d="M308.867 159.06C308.503 155.53 310.653 155.162 312.582 155.819C314.515 156.477 316.952 157.704 317.627 159.324C318.124 160.516 316.555 163.313 315.14 164.344C313.779 165.335 311.434 164.974 308.865 165.288C308.865 163.044 308.865 161.285 308.867 159.06Z" fill="#FCFEFC"/>
<path d="M146.97 170.774C145.834 170.078 144.342 169.221 144.452 168.716C145.069 165.902 146.074 163.173 147.309 159.266C148.653 163.74 149.62 166.96 150.678 170.482C149.265 170.607 148.309 170.691 146.97 170.774Z" fill="#E4FAE7"/>
<path d="M256.161 157.543C258.289 153.836 261.571 154.981 263.235 156.599C264.714 158.036 265.466 161.478 264.856 163.536C263.666 167.547 259.946 166.969 256.149 166.594C256.149 163.517 256.149 160.742 256.161 157.543Z" fill="#EDFCEF"/>
</svg>
